<?xml version="1.0" encoding="UTF-8"?>
<svg version="1.1" xmlns="http://www.w3.org/2000/svg" width="160" height="160">
<path d="M0 0 C0.87052002 -0.00525696 1.74104004 -0.01051392 2.63793945 -0.01593018 C5.50881007 -0.02910888 8.37912396 -0.02039961 11.25 -0.01025391 C13.248699 -0.01227525 15.24739728 -0.0151872 17.24609375 -0.01895142 C21.43236319 -0.02337188 25.61844042 -0.01695256 29.8046875 -0.00292969 C35.16820576 0.01416195 40.53127365 0.0043193 45.89477539 -0.01364708 C50.02119332 -0.02449234 54.14750463 -0.02103514 58.27392578 -0.0132637 C60.25146539 -0.01126376 62.2290147 -0.01371376 64.20654297 -0.02070236 C66.97128914 -0.02832897 69.73530794 -0.01669562 72.5 0 C73.31573486 -0.00607269 74.13146973 -0.01214539 74.97192383 -0.0184021 C79.53116667 0.03255272 82.61192983 0.34900707 86.25 3.38818359 C88.95475782 7.15029548 89.62592322 9.7413579 89.63095093 14.34667969 C89.6394104 15.54113708 89.64786987 16.73559448 89.65658569 17.96624756 C89.650513 19.26822083 89.64444031 20.57019409 89.63818359 21.91162109 C89.64225082 23.30324719 89.64759355 24.69487005 89.65411377 26.08648682 C89.66777534 29.85921415 89.66249361 33.63169501 89.65297651 37.40442657 C89.64537387 41.35523638 89.6524272 45.30602529 89.65713501 49.25683594 C89.66259081 55.89115177 89.6554056 62.52536736 89.64111328 69.15966797 C89.62478706 76.82655304 89.63007569 84.49319877 89.6465925 92.16007805 C89.66021241 98.74621057 89.66212457 105.3322711 89.65427649 111.91841316 C89.64960273 115.85049487 89.6489669 119.78246412 89.65888596 123.71453857 C89.66756074 127.41150856 89.66152464 131.10817037 89.64420319 134.80510712 C89.63835303 136.80677366 89.64724954 138.80846631 89.65658569 140.81011963 C89.64812622 142.00457703 89.63966675 143.19903442 89.63095093 144.4296875 C89.62981985 145.46574127 89.62868877 146.50179504 89.62752342 147.56924438 C89.07322622 151.70814022 87.38477995 154.36322106 84.3125 157.13818359 C79.87771137 159.82593428 75.25167757 159.54188106 70.19604492 159.54931641 C69.38740494 159.55428131 68.57876495 159.55924622 67.74562073 159.56436157 C65.0738947 159.57895079 62.40222805 159.58577985 59.73046875 159.59130859 C57.86965433 159.59706278 56.00883991 159.60282048 54.14802551 159.60858154 C50.24671147 159.61908236 46.34541798 159.62493102 42.4440918 159.62841797 C37.45407193 159.63390028 32.46432524 159.65792659 27.47439098 159.68638992 C23.6301444 159.70504753 19.78596322 159.71022357 15.94167519 159.71175385 C14.10253722 159.71477392 12.26340024 159.72278063 10.42430687 159.73593903 C7.84670821 159.75306469 5.26977172 159.75110349 2.69213867 159.74462891 C1.93812775 159.75384369 1.18411682 159.76305847 0.40725708 159.77255249 C-4.68359659 159.73265591 -8.21556 158.740448 -12.75 156.38818359 C-16.39620081 152.49890273 -16.87532927 148.94431135 -16.89044189 143.75285339 C-16.89615204 142.57941879 -16.90186218 141.40598419 -16.90774536 140.19699097 C-16.90886322 138.90809967 -16.90998108 137.61920837 -16.91113281 136.29125977 C-16.91576175 134.9212582 -16.92078651 133.55125793 -16.92617798 132.18125916 C-16.93929704 128.45801267 -16.94574601 124.73478422 -16.95018864 121.01151824 C-16.95312026 118.68491037 -16.95722525 116.35830743 -16.96169281 114.03170204 C-16.97536668 106.7509492 -16.98503377 99.47020761 -16.9888947 92.18944281 C-16.99337481 83.78739676 -17.01092088 75.38551344 -17.0398953 66.98351687 C-17.06151876 60.48744696 -17.07159934 53.9914228 -17.07293582 47.49531728 C-17.07398341 43.616247 -17.07988128 39.73732971 -17.09775543 35.85829735 C-17.11424761 32.2081675 -17.1163862 28.55830548 -17.10761642 24.90815163 C-17.10648029 22.93406857 -17.12018896 20.95999436 -17.1343689 18.98596191 C-17.12879974 17.80406784 -17.12323059 16.62217377 -17.11749268 15.40446472 C-17.11895924 14.38148379 -17.1204258 13.35850286 -17.1219368 12.30452251 C-16.55469073 7.85677282 -15.01186456 4.47916467 -11.609375 1.53744507 C-7.67430981 -0.04416589 -4.20448754 -0.03130007 0 0 Z " fill="#E6DCD1" transform="translate(43.75,0.61181640625)"/>
<path d="M0 0 C3.98908331 2.5523372 7.96365964 5.3995689 10.84375 9.1796875 C10.54468458 13.47875292 10.54468458 13.47875292 8.84375 15.1796875 C7.17757885 15.22032582 5.50986905 15.2224085 3.84375 15.1796875 C3.46241701 13.1882819 3.13049418 11.18689673 2.84375 9.1796875 C3.17375 8.8496875 3.50375 8.5196875 3.84375 8.1796875 C2.24042209 8.09846826 0.63590974 8.04039616 -0.96875 7.9921875 C-1.86207031 7.95738281 -2.75539062 7.92257813 -3.67578125 7.88671875 C-6.19917014 7.96930547 -6.19917014 7.96930547 -7.9375 9.5546875 C-9.32715645 11.40756277 -9.76541439 12.91284094 -10.15625 15.1796875 C-8.4546875 15.0559375 -8.4546875 15.0559375 -6.71875 14.9296875 C-0.26386856 14.94113233 4.8590074 17.49697095 9.71875 21.6171875 C11.72992237 24.04242477 13.24743355 26.47289004 14.84375 29.1796875 C15.58625 29.8603125 16.32875 30.5409375 17.09375 31.2421875 C17.96 32.20125 17.96 32.20125 18.84375 33.1796875 C18.59375 35.4296875 18.59375 35.4296875 17.84375 37.1796875 C15.46875 37.8046875 15.46875 37.8046875 12.84375 38.1796875 C12.18375 37.5196875 11.52375 36.8596875 10.84375 36.1796875 C11.21875 33.5546875 11.21875 33.5546875 11.84375 31.1796875 C8.96904507 29.74233504 7.02480412 29.79796101 3.84375 30.1796875 C0.6679826 33.11160133 -0.1144164 34.67717413 -0.4765625 39.02734375 C-0.43176847 40.43308579 -0.36617821 41.83829847 -0.28125 43.2421875 C0.13785893 51.75630789 0.13785893 51.75630789 -2.15625 55.1796875 C-2.81625 55.1796875 -3.47625 55.1796875 -4.15625 55.1796875 C-4.15625 56.8296875 -4.15625 58.4796875 -4.15625 60.1796875 C-3.50398438 60.45941406 -2.85171875 60.73914063 -2.1796875 61.02734375 C4.05960972 63.88932227 7.74135337 66.6738394 11.84375 72.1796875 C10.85375 72.6746875 10.85375 72.6746875 9.84375 73.1796875 C8.15884595 72.41982881 6.47466161 71.65826009 4.796875 70.8828125 C1.80717542 69.80652065 -1.02259055 69.9878308 -4.15625 70.1796875 C-3.49625 71.0459375 -2.83625 71.9121875 -2.15625 72.8046875 C-0.02929615 76.39392213 0.23165972 78.10663548 -0.15625 82.1796875 C-3.55450025 80.89710275 -6.58052933 79.37071367 -9.71875 77.5546875 C-15.56650095 74.6611337 -20.7325823 73.86428821 -27.15625 75.1796875 C-31.43349735 77.14423715 -35.26869507 79.53944254 -39.15625 82.1796875 C-40.14625 82.6746875 -40.14625 82.6746875 -41.15625 83.1796875 C-41.79790788 77.91809291 -40.36202001 75.49375901 -37.25 71.5 C-36.8890625 71.06429687 -36.528125 70.62859375 -36.15625 70.1796875 C-42.36595773 69.84702459 -46.43889895 70.72939419 -52.15625 73.1796875 C-49.09828467 66.25824401 -42.61866188 62.60872237 -36.15625 59.1796875 C-36.795625 58.5196875 -37.435 57.8596875 -38.09375 57.1796875 C-41.36965301 52.41473766 -41.22288364 47.62270947 -41.03125 42.0546875 C-41.19475563 36.98601288 -42.57752409 33.75841341 -46.15625 30.1796875 C-50.79725213 29.83590956 -52.91695385 30.06003942 -57.15625 32.1796875 C-56.82625 35.1496875 -56.49625 38.1196875 -56.15625 41.1796875 C-60.90625 42.3046875 -60.90625 42.3046875 -63.15625 41.1796875 C-63.53361455 36.77710105 -62.51863997 34.84546504 -60.15625 31.1796875 C-59.40453301 29.51379454 -58.65470904 27.84704674 -57.90625 26.1796875 C-55.95346553 22.36521055 -54.25998344 19.27918644 -50.6015625 16.94140625 C-44.73248481 15.11317917 -38.22310053 15.85194648 -32.15625 16.1796875 C-32.05183594 15.4371875 -31.94742188 14.6946875 -31.83984375 13.9296875 C-30.4772951 8.44834892 -26.34576281 4.68024323 -21.78515625 1.5546875 C-14.66857054 -2.35332837 -7.57139798 -3.74998485 0 0 Z " fill="#CFC6BB" transform="translate(101.15625,34.8203125)"/>
<path d="M0 0 C3.98908331 2.5523372 7.96365964 5.3995689 10.84375 9.1796875 C10.54468458 13.47875292 10.54468458 13.47875292 8.84375 15.1796875 C7.17757885 15.22032582 5.50986905 15.2224085 3.84375 15.1796875 C3.46241701 13.1882819 3.13049418 11.18689673 2.84375 9.1796875 C3.17375 8.8496875 3.50375 8.5196875 3.84375 8.1796875 C2.24042209 8.09846826 0.63590974 8.04039616 -0.96875 7.9921875 C-1.86207031 7.95738281 -2.75539062 7.92257813 -3.67578125 7.88671875 C-6.19917014 7.96930547 -6.19917014 7.96930547 -7.9375 9.5546875 C-9.32715645 11.40756277 -9.76541439 12.91284094 -10.15625 15.1796875 C-8.4546875 15.0559375 -8.4546875 15.0559375 -6.71875 14.9296875 C-0.26386856 14.94113233 4.8590074 17.49697095 9.71875 21.6171875 C11.72992237 24.04242477 13.24743355 26.47289004 14.84375 29.1796875 C15.58625 29.8603125 16.32875 30.5409375 17.09375 31.2421875 C17.96 32.20125 17.96 32.20125 18.84375 33.1796875 C18.59375 35.4296875 18.59375 35.4296875 17.84375 37.1796875 C15.46875 37.8046875 15.46875 37.8046875 12.84375 38.1796875 C12.18375 37.5196875 11.52375 36.8596875 10.84375 36.1796875 C11.21875 33.5546875 11.21875 33.5546875 11.84375 31.1796875 C8.96904507 29.74233504 7.02480412 29.79796101 3.84375 30.1796875 C-1.13479107 34.19017892 -1.36041482 40.20045217 -2.15625 46.1796875 C-2.48625 46.1796875 -2.81625 46.1796875 -3.15625 46.1796875 C-3.24712891 45.04080078 -3.24712891 45.04080078 -3.33984375 43.87890625 C-3.42363281 42.88503906 -3.50742188 41.89117187 -3.59375 40.8671875 C-3.67496094 39.88105469 -3.75617188 38.89492187 -3.83984375 37.87890625 C-4.07437559 35.08593151 -4.07437559 35.08593151 -5.15625 32.1796875 C-8.1583284 32.62116962 -10.19637357 33.20301516 -12.84375 34.7421875 C-17.36240041 36.70311126 -21.29776739 36.90999739 -26.15625 36.1796875 C-28.72123643 35.07425492 -30.80184703 33.71725678 -33.15625 32.1796875 C-34.14625 32.1796875 -35.13625 32.1796875 -36.15625 32.1796875 C-37.50716528 34.88151805 -37.49483058 37.29776956 -37.71875 40.3046875 C-37.80253906 41.40039062 -37.88632812 42.49609375 -37.97265625 43.625 C-38.06353516 44.88957031 -38.06353516 44.88957031 -38.15625 46.1796875 C-38.48625 46.1796875 -38.81625 46.1796875 -39.15625 46.1796875 C-39.41019531 45.27605469 -39.66414063 44.37242188 -39.92578125 43.44140625 C-40.26996094 42.26191406 -40.61414063 41.08242187 -40.96875 39.8671875 C-41.30519531 38.69542969 -41.64164063 37.52367187 -41.98828125 36.31640625 C-43.07387562 33.40091369 -43.63872257 31.9369715 -46.15625 30.1796875 C-50.8221417 29.75551553 -52.89755098 30.05033799 -57.15625 32.1796875 C-56.82625 35.1496875 -56.49625 38.1196875 -56.15625 41.1796875 C-60.90625 42.3046875 -60.90625 42.3046875 -63.15625 41.1796875 C-63.53361455 36.77710105 -62.51863997 34.84546504 -60.15625 31.1796875 C-59.40453301 29.51379454 -58.65470904 27.84704674 -57.90625 26.1796875 C-55.95346553 22.36521055 -54.25998344 19.27918644 -50.6015625 16.94140625 C-44.73248481 15.11317917 -38.22310053 15.85194648 -32.15625 16.1796875 C-32.05183594 15.4371875 -31.94742188 14.6946875 -31.83984375 13.9296875 C-30.4772951 8.44834892 -26.34576281 4.68024323 -21.78515625 1.5546875 C-14.66857054 -2.35332837 -7.57139798 -3.74998485 0 0 Z " fill="#3A3939" transform="translate(101.15625,34.8203125)"/>
<path d="M0 0 C1.33333333 2 2.66666667 4 4 6 C7.67297862 9.14826739 11.0329361 9.52337568 15.71875 9.3515625 C19.60393812 8.75281776 21.82773289 7.34747766 25 5 C26.93694583 2.41796279 26.93694583 2.41796279 28 0 C34.46861721 1.67215955 39.51320282 3.91662037 44 9 C45.19140625 11.19140625 45.19140625 11.19140625 46 13 C45.43152344 12.7834375 44.86304688 12.566875 44.27734375 12.34375 C39.2757781 10.54018042 35.31037964 9.6610396 30 10 C30.66 10.86625 31.32 11.7325 32 12.625 C34.12695385 16.21423463 34.38790972 17.92694798 34 22 C30.60174975 20.71741525 27.57572067 19.19102617 24.4375 17.375 C18.58974905 14.4814462 13.4236677 13.68460071 7 15 C2.72275265 16.96454965 -1.11244507 19.35975504 -5 22 C-5.66 22.33 -6.32 22.66 -7 23 C-7.64165788 17.73840541 -6.20577001 15.31407151 -3.09375 11.3203125 C-2.55234375 10.66675781 -2.55234375 10.66675781 -2 10 C-8.20970773 9.66733709 -12.28264895 10.54970669 -18 13 C-15.04317022 6.28915593 -7.51722823 0 0 0 Z " fill="#2B2B2A" transform="translate(67,95)"/>
<path d="M0 0 C0.33 0 0.66 0 1 0 C1.03738281 0.99 1.07476562 1.98 1.11328125 3 C1.44627257 10.1317897 1.92217034 16.44288463 5 23 C5.66 23 6.32 23 7 23 C7 22.01 7 21.02 7 20 C9 21 11 22 13 23 C14.78859511 23.12207871 16.58228381 23.17548448 18.375 23.1875 C19.33148438 23.20167969 20.28796875 23.21585938 21.2734375 23.23046875 C24.03010017 22.99745572 25.64947395 22.40920164 28 21 C27.92303847 24.23238414 27.62561345 26.33227795 25.375 28.734375 C23.62229929 30.21851673 21.84920638 31.63844334 20 33 C23.77545388 31.90931332 26.47043472 31.0916909 29 28 C29.66 28.33 30.32 28.66 31 29 C24.7802741 35.56526623 24.7802741 35.56526623 19.8515625 36.3359375 C14.33377296 36.43274083 11.22255365 35.86318738 7 32 C-3.04885744 19.86945834 -3.04885744 19.86945834 -2.9765625 12.6640625 C-2.65104167 10.77604167 -2.32552083 8.88802083 -2 7 C-1.67 7 -1.34 7 -1 7 C-0.67 4.69 -0.34 2.38 0 0 Z " fill="#B9ADA2" transform="translate(63,69)"/>
<path d="M0 0 C1.65 0 3.3 0 5 0 C5.10829314 2.89684158 5.18743954 5.78961019 5.25 8.6875 C5.30027344 9.91243164 5.30027344 9.91243164 5.3515625 11.16210938 C5.4173977 15.22743314 5.3137931 17.45849863 3.234375 21.046875 C0.23600304 23.66782951 -1.27299243 23.67204899 -5.09375 23.4296875 C-8.02617251 22.76869062 -9.32929873 21.43643935 -11 19 C-11 18.01 -11 17.02 -11 16 C-9.35 16 -7.7 16 -6 16 C-5.67 16.66 -5.34 17.32 -5 18 C-3.68 18 -2.36 18 -1 18 C-0.505 9.09 -0.505 9.09 0 0 Z " fill="#565555" transform="translate(44,8)"/>
<path d="M0 0 C2 1 4 2 6 3 C7.78859511 3.12207871 9.58228381 3.17548448 11.375 3.1875 C12.33148438 3.20167969 13.28796875 3.21585937 14.2734375 3.23046875 C17.03010017 2.99745572 18.64947395 2.40920164 21 1 C20.73701637 4.7694321 20.16190154 6.77431907 17.9375 9.875 C14.67701327 12.23364997 12.95192834 12.86808927 9 12.62109375 C5.11435748 11.41441961 3.01284107 8.39447763 1 5 C0.125 2.0625 0.125 2.0625 0 0 Z " fill="#DA413F" transform="translate(70,89)"/>
<path d="M0 0 C2.875 1.8125 2.875 1.8125 5 4 C5 4.99 5 5.98 5 7 C3.35 7 1.7 7 0 7 C-0.33 6.34 -0.66 5.68 -1 5 C-2.32 5.33 -3.64 5.66 -5 6 C-5.33 11.61 -5.66 17.22 -6 23 C-7.32 23 -8.64 23 -10 23 C-10.11644156 19.91698584 -10.18732432 16.83453877 -10.25 13.75 C-10.28351563 12.87730469 -10.31703125 12.00460938 -10.3515625 11.10546875 C-10.45036693 4.63377862 -10.45036693 4.63377862 -8.16796875 1.421875 C-5.18313084 -0.53574842 -3.50733689 -0.57262643 0 0 Z " fill="#0D0D0D" transform="translate(122,129)"/>
<path d="M0 0 C0.86625 0.3403125 0.86625 0.3403125 1.75 0.6875 C2.41 2.9975 3.07 5.3075 3.75 7.6875 C4.08 7.6875 4.41 7.6875 4.75 7.6875 C4.97281874 9.60253674 5.17771076 11.51966506 5.375 13.4375 C5.49101563 14.50484375 5.60703125 15.5721875 5.7265625 16.671875 C5.75029475 19.72542399 5.36420985 21.14912421 3.75 23.6875 C3.09 23.6875 2.43 23.6875 1.75 23.6875 C1.564375 24.8940625 1.564375 24.8940625 1.375 26.125 C1.16875 26.970625 0.9625 27.81625 0.75 28.6875 C0.09 29.0175 -0.57 29.3475 -1.25 29.6875 C-1.08773926 28.9665918 -0.92547852 28.24568359 -0.75830078 27.50292969 C-0.2721873 24.81039333 -0.12082349 22.37176957 -0.1171875 19.640625 C-0.11589844 18.71378906 -0.11460938 17.78695312 -0.11328125 16.83203125 C-0.11714844 15.87683594 -0.12101562 14.92164062 -0.125 13.9375 C-0.12113281 12.96683594 -0.11726563 11.99617188 -0.11328125 10.99609375 C-0.11457031 10.07441406 -0.11585937 9.15273437 -0.1171875 8.203125 C-0.11831543 7.36040039 -0.11944336 6.51767578 -0.12060547 5.64941406 C-0.03379551 3.68402482 -0.03379551 3.68402482 -1.25 2.6875 C-2.91617115 2.64686168 -4.58388095 2.644779 -6.25 2.6875 C-2.80384615 -0.38942308 -2.80384615 -0.38942308 0 0 Z M-4.75 12.375 C-3.5125 12.5296875 -3.5125 12.5296875 -2.25 12.6875 C-1.59 13.6775 -0.93 14.6675 -0.25 15.6875 C-3.38498292 17.54526765 -5.62471432 17.88890476 -9.25 17.6875 C-9.25 13.85558442 -8.59239898 12.85529987 -4.75 12.375 Z " fill="#B9B0A5" transform="translate(95.25,66.3125)"/>
<path d="M0 0 C0.33 0 0.66 0 1 0 C1.41779497 11.74468085 1.41779497 11.74468085 -1 16 C-4.88938031 19.42391695 -8.3556498 21.8269105 -13.5625 22.375 C-14.366875 22.25125 -15.17125 22.1275 -16 22 C-15.195625 21.6596875 -15.195625 21.6596875 -14.375 21.3125 C-11.11943794 19.5133736 -8.63786092 17.63786092 -6 15 C-5.60539977 12.67624308 -5.27769908 10.3406065 -5 8 C-3.57272064 5.16533367 -1.93525447 2.51713841 0 0 Z " fill="#CEC0B5" transform="translate(95,81)"/>
<path d="M0 0 C3.75489551 0.61304417 5.42901615 1.78906074 8.0625 4.5 C8.0625 5.49 8.0625 6.48 8.0625 7.5 C6.4125 7.5 4.7625 7.5 3.0625 7.5 C2.7325 6.84 2.4025 6.18 2.0625 5.5 C-0.5775 5.83 -3.2175 6.16 -5.9375 6.5 C-6.2675 5.84 -6.5975 5.18 -6.9375 4.5 C-4.70476097 1.7520135 -3.54657583 0.60367248 0 0 Z " fill="#1C1C1C" transform="translate(118.9375,128.5)"/>
<path d="M0 0 C2.90427192 3.2565421 3.49418379 5.683848 3.8125 10 C3.90144531 11.03125 3.99039063 12.0625 4.08203125 13.125 C3.99870915 16.0452412 3.52548523 17.54979978 2 20 C1.34 20 0.68 20 0 20 C-0.12375 20.804375 -0.2475 21.60875 -0.375 22.4375 C-0.684375 23.7059375 -0.684375 23.7059375 -1 25 C-1.66 25.33 -2.32 25.66 -3 26 C-2.5359375 24.2984375 -2.5359375 24.2984375 -2.0625 22.5625 C-0.38744128 15.17323386 -0.32912526 7.5438973 0 0 Z " fill="#938C83" transform="translate(97,70)"/>
<path d="M0 0 C1.7492214 -0.08142927 3.49954542 -0.13938541 5.25 -0.1875 C6.22453125 -0.22230469 7.1990625 -0.25710937 8.203125 -0.29296875 C11.37468742 0.03924798 12.67040307 0.88672279 15 3 C14.125 7.875 14.125 7.875 13 9 C11.33382885 9.04063832 9.66611905 9.042721 8 9 C7.61866701 7.0085944 7.28674418 5.00720923 7 3 C7.33 2.67 7.66 2.34 8 2 C5.36 1.67 2.72 1.34 0 1 C0 0.67 0 0.34 0 0 Z " fill="#484645" transform="translate(97,41)"/>
<path d="M0 0 C0.66 0.33 1.32 0.66 2 1 C-4.27612344 7.62479697 -4.27612344 7.62479697 -9.18359375 8.30078125 C-13.98063644 8.32572255 -17.05559461 8.0537332 -21 5 C-20.34 4.67 -19.68 4.34 -19 4 C-18.01 4.33 -17.02 4.66 -16 5 C-15.67 4.34 -15.34 3.68 -15 3 C-9.25 3.875 -9.25 3.875 -7 5 C-3.32159111 2.72692336 -3.32159111 2.72692336 0 0 Z " fill="#9E948C" transform="translate(92,97)"/>
<path d="M0 0 C0.33 0 0.66 0 1 0 C1.33 6.93 1.66 13.86 2 21 C0.68 20.67 -0.64 20.34 -2 20 C-3.28571429 11.57142857 -3.28571429 11.57142857 -2 7 C-1.67 7 -1.34 7 -1 7 C-0.67 4.69 -0.34 2.38 0 0 Z " fill="#827B73" transform="translate(63,69)"/>
<path d="M0 0 C0.598125 0.20625 1.19625 0.4125 1.8125 0.625 C2.4375 3 2.4375 3 2.8125 5.625 C2.1525 6.285 1.4925 6.945 0.8125 7.625 C-1.8125 7.25 -1.8125 7.25 -4.1875 6.625 C-4.5175 4.975 -4.8475 3.325 -5.1875 1.625 C-2.1875 -0.375 -2.1875 -0.375 0 0 Z " fill="#333231" transform="translate(117.1875,65.375)"/>
<path d="M0 0 C0.99 0.33 1.98 0.66 3 1 C4.47686111 1.09247381 5.95775501 1.12999071 7.4375 1.125 C8.19933594 1.12757812 8.96117188 1.13015625 9.74609375 1.1328125 C11.95315859 1.00276015 13.87969276 0.60856199 16 0 C15.03628506 2.40928735 14.34789837 3.76007009 12.1875 5.25 C9.47304621 6.18066987 7.85147512 6.48683722 5 6 C2.1875 3.5625 2.1875 3.5625 0 1 C0 0.67 0 0.34 0 0 Z " fill="#DFCBC1" transform="translate(73,93)"/>
<path d="M0 0 C2 1 4 2 6 3 C7.87056791 3.2275015 9.74685958 3.40962811 11.625 3.5625 C12.62789062 3.64628906 13.63078125 3.73007813 14.6640625 3.81640625 C15.43492188 3.87699219 16.20578125 3.93757813 17 4 C15 6 15 6 12.90625 6.1953125 C12.1121875 6.17210938 11.318125 6.14890625 10.5 6.125 C9.7059375 6.10695313 8.911875 6.08890625 8.09375 6.0703125 C7.4028125 6.04710938 6.711875 6.02390625 6 6 C3.9254644 5.8509288 3.9254644 5.8509288 2 7 C1.34 4.69 0.68 2.38 0 0 Z " fill="#D15350" transform="translate(70,89)"/>
<path d="M0 0 C0.33 0.99 0.66 1.98 1 3 C-6.87746171 8.88183807 -6.87746171 8.88183807 -11.5625 9.375 C-12.366875 9.25125 -13.17125 9.1275 -14 9 C-13.2265625 8.6596875 -13.2265625 8.6596875 -12.4375 8.3125 C-9.67175872 6.8232547 -7.21674211 5.06924591 -4.68359375 3.21875 C-3.14912052 2.10794803 -1.57617848 1.05078566 0 0 Z " fill="#B7AEA3" transform="translate(93,94)"/>
<path d="M0 0 C0.33 0 0.66 0 1 0 C1.19517554 1.93674185 1.38087873 3.87444009 1.5625 5.8125 C1.66691406 6.89144531 1.77132812 7.97039062 1.87890625 9.08203125 C2 12 2 12 1 15 C0.01 14.67 -0.98 14.34 -2 14 C-1.34 9.38 -0.68 4.76 0 0 Z " fill="#ACA49A" transform="translate(99,74)"/>
<path d="M0 0 C1.09054688 0.02320313 2.18109375 0.04640625 3.3046875 0.0703125 C4.40039062 0.08835938 5.49609375 0.10640625 6.625 0.125 C7.46804687 0.14820313 8.31109375 0.17140625 9.1796875 0.1953125 C9.1796875 0.5253125 9.1796875 0.8553125 9.1796875 1.1953125 C8.14908203 1.25138672 8.14908203 1.25138672 7.09765625 1.30859375 C6.19660156 1.37433594 5.29554687 1.44007812 4.3671875 1.5078125 C3.47386719 1.56582031 2.58054687 1.62382813 1.66015625 1.68359375 C-1.1263525 2.25844831 -2.06167004 3.0159981 -3.8203125 5.1953125 C-2.8303125 5.8553125 -1.8403125 6.5153125 -0.8203125 7.1953125 C-2.4703125 7.1953125 -4.1203125 7.1953125 -5.8203125 7.1953125 C-4.73599646 0.32797759 -4.73599646 0.32797759 0 0 Z " fill="#ECE2D6" transform="translate(97.8203125,41.8046875)"/>
<path d="M0 0 C0.33 0 0.66 0 1 0 C1.66 4.29 2.32 8.58 3 13 C2.01 13 1.02 13 0 13 C-1.28571429 4.57142857 -1.28571429 4.57142857 0 0 Z " fill="#ACA399" transform="translate(61,76)"/>
<path d="M0 0 C2.475 0.495 2.475 0.495 5 1 C5 1.66 5 2.32 5 3 C6.32 3.66 7.64 4.32 9 5 C6 6 6 6 3.375 4.75 C1 3 1 3 0 0 Z " fill="#AFA69B" transform="translate(67,96)"/>
<path d="M0 0 C1.32 0 2.64 0 4 0 C3.67 1.65 3.34 3.3 3 5 C1.35 5 -0.3 5 -2 5 C-2 2 -2 2 0 0 Z " fill="#3F474A" transform="translate(72,79)"/>
<path d="M0 0 C0.33 0 0.66 0 1 0 C0.63076923 6.4 0.63076923 6.4 -2.5625 9.4375 C-3.7690625 10.2109375 -3.7690625 10.2109375 -5 11 C-4.38722388 8.03824877 -3.74627478 6.61941217 -2 4 C-1.31822584 2.67432801 -0.64808564 1.34246312 0 0 Z " fill="#C3B8AC" transform="translate(95,86)"/>
<path d="M0 0 C0.99 0 1.98 0 3 0 C3.5625 1.9375 3.5625 1.9375 4 4 C3 5 3 5 0.4375 5.0625 C-0.7690625 5.0315625 -0.7690625 5.0315625 -2 5 C-2 2 -2 2 0 0 Z " fill="#353F42" transform="translate(88,79)"/>
<path d="M0 0 C3.3 1.65 6.6 3.3 10 5 C10 5.33 10 5.66 10 6 C6.29706315 6.33663062 4.60465619 6.47736015 1.625 4.125 C0 2 0 2 0 0 Z " fill="#DC2B2B" transform="translate(73,95)"/>
<path d="M0 0 C1.98 0 3.96 0 6 0 C6 0.99 6 1.98 6 3 C4.35 3 2.7 3 1 3 C0.67 2.01 0.34 1.02 0 0 Z " fill="#AB8F87" transform="translate(78,90)"/>
</svg>
